<?xml version="1.0" standalone="no"?><svg xmlns="http://www.w3.org/2000/svg" viewBox="0 0 1440 320"><path fill="#00fcdb" fill-opacity="1" d="M0,96L40,128C80,160,160,224,240,224C320,224,400,160,480,128C560,96,640,96,720,112C800,128,880,160,960,165.3C1040,171,1120,149,1200,144C1280,139,1360,149,1400,154.7L1440,160L1440,320L1400,320C1360,320,1280,320,1200,320C1120,320,1040,320,960,320C880,320,800,320,720,320C640,320,560,320,480,320C400,320,320,320,240,320C160,320,80,320,40,320L0,320Z"></path></svg>